<svg xmlns="http://www.w3.org/2000/svg" xmlns:xlink="http://www.w3.org/1999/xlink" width="208" zoomAndPan="magnify" viewBox="0 0 156 42" height="56" preserveAspectRatio="xMidYMid meet" version="1.0"><defs><g/></defs><g fill="#2b2b2b" fill-opacity="1"><g transform="translate(4.451162, 30.318743)"><g><path d="M 27.5 -23.71875 L 27.5 -23.40625 C 27.457031 -23.40625 27.390625 -23.367188 27.296875 -23.296875 C 27.203125 -23.234375 27.109375 -23.113281 27.015625 -22.9375 C 26.929688 -22.757812 26.859375 -22.5 26.796875 -22.15625 C 26.742188 -21.820312 26.71875 -21.375 26.71875 -20.8125 L 26.71875 -2.90625 C 26.71875 -2.363281 26.742188 -1.914062 26.796875 -1.5625 C 26.859375 -1.21875 26.929688 -0.953125 27.015625 -0.765625 C 27.109375 -0.585938 27.203125 -0.460938 27.296875 -0.390625 C 27.390625 -0.328125 27.457031 -0.296875 27.5 -0.296875 L 27.5 0 L 23.515625 0 L 23.515625 -0.296875 C 23.554688 -0.296875 23.617188 -0.328125 23.703125 -0.390625 C 23.796875 -0.460938 23.882812 -0.585938 23.96875 -0.765625 C 24.050781 -0.953125 24.125 -1.21875 24.1875 -1.5625 C 24.25 -1.914062 24.28125 -2.363281 24.28125 -2.90625 L 24.28125 -23 L 14.15625 -2 L 15.09375 0 L 12.4375 0 L 2.59375 -20.4375 L 2.59375 -5.546875 C 2.59375 -4.753906 2.640625 -4.035156 2.734375 -3.390625 C 2.828125 -2.753906 2.9375 -2.203125 3.0625 -1.734375 C 3.1875 -1.273438 3.320312 -0.921875 3.46875 -0.671875 C 3.613281 -0.421875 3.753906 -0.296875 3.890625 -0.296875 L 3.890625 0 L 1.015625 0 L 1.015625 -0.296875 C 1.148438 -0.296875 1.289062 -0.421875 1.4375 -0.671875 C 1.582031 -0.921875 1.71875 -1.273438 1.84375 -1.734375 C 1.96875 -2.203125 2.070312 -2.753906 2.15625 -3.390625 C 2.25 -4.035156 2.296875 -4.753906 2.296875 -5.546875 L 2.296875 -21.046875 L 1.015625 -23.71875 L 3.6875 -23.71875 L 13.984375 -2.328125 L 24.28125 -23.71875 Z M 27.5 -23.71875 "/></g></g></g><g fill="#2b2b2b" fill-opacity="1"><g transform="translate(11.992822, 37.095853)"><g><path d="M 2 -12.125 C 1.40625 -14.320312 1.265625 -16.503906 1.578125 -18.671875 C 1.890625 -20.835938 2.570312 -22.832031 3.625 -24.65625 C 4.675781 -26.476562 6.0625 -28.0625 7.78125 -29.40625 C 9.5 -30.757812 11.457031 -31.734375 13.65625 -32.328125 C 15.226562 -32.753906 16.800781 -32.9375 18.375 -32.875 C 19.957031 -32.8125 21.476562 -32.546875 22.9375 -32.078125 C 24.394531 -31.617188 25.765625 -30.960938 27.046875 -30.109375 C 28.335938 -29.265625 29.476562 -28.253906 30.46875 -27.078125 L 29.390625 -22.984375 L 28.984375 -22.984375 C 28.265625 -24.410156 27.378906 -25.765625 26.328125 -27.046875 C 25.273438 -28.335938 24.097656 -29.414062 22.796875 -30.28125 C 21.492188 -31.144531 20.078125 -31.742188 18.546875 -32.078125 C 17.015625 -32.421875 15.414062 -32.378906 13.75 -31.953125 C 11.738281 -31.421875 10.082031 -30.472656 8.78125 -29.109375 C 7.476562 -27.753906 6.484375 -26.1875 5.796875 -24.40625 C 5.117188 -22.625 4.738281 -20.726562 4.65625 -18.71875 C 4.582031 -16.707031 4.796875 -14.800781 5.296875 -13 C 5.972656 -10.40625 7.054688 -8.238281 8.546875 -6.5 C 10.035156 -4.769531 11.695312 -3.453125 13.53125 -2.546875 C 15.375 -1.648438 17.296875 -1.160156 19.296875 -1.078125 C 21.296875 -1.003906 23.175781 -1.335938 24.9375 -2.078125 C 26.695312 -2.828125 28.234375 -3.96875 29.546875 -5.5 C 30.867188 -7.03125 31.765625 -8.941406 32.234375 -11.234375 L 32.59375 -11.140625 C 32.101562 -8.640625 31.109375 -6.546875 29.609375 -4.859375 C 28.109375 -3.171875 26.34375 -1.914062 24.3125 -1.09375 C 22.28125 -0.269531 20.109375 0.125 17.796875 0.09375 C 15.492188 0.0625 13.289062 -0.40625 11.1875 -1.3125 C 9.082031 -2.226562 7.203125 -3.582031 5.546875 -5.375 C 3.890625 -7.175781 2.707031 -9.425781 2 -12.125 Z M 2 -12.125 "/></g></g></g><g fill="#2b2b2b" fill-opacity="1"><g transform="translate(43.713787, 23.441862)"><g><path d="M 0.53125 0 L 1.875 0 L 1.875 -0.136719 C 1.40625 -0.265625 1.152344 -0.566406 1.152344 -1.78125 L 1.152344 -6.511719 L 3.878906 -2.023438 L 4.082031 -2.023438 L 6.789062 -6.597656 L 6.789062 -1.355469 C 6.789062 -0.480469 6.683594 -0.234375 6.363281 -0.136719 L 6.363281 0 L 8.089844 0 L 8.089844 -0.136719 C 7.757812 -0.234375 7.664062 -0.480469 7.664062 -1.355469 L 7.664062 -5.679688 C 7.664062 -6.894531 7.886719 -7.195312 8.3125 -7.324219 L 8.3125 -7.460938 L 7.109375 -7.460938 L 4.378906 -2.867188 L 1.597656 -7.460938 L 0.308594 -7.460938 L 0.308594 -7.324219 C 0.734375 -7.195312 0.960938 -6.894531 0.960938 -5.679688 L 0.960938 -1.355469 C 0.960938 -0.480469 0.863281 -0.234375 0.53125 -0.136719 Z M 0.53125 0 "/></g></g></g><g fill="#2b2b2b" fill-opacity="1"><g transform="translate(54.242829, 23.441862)"><g><path d="M -0.179688 0 L 1.023438 0 L 1.023438 -0.136719 C 0.660156 -0.214844 0.617188 -0.566406 0.894531 -1.257812 L 1.523438 -2.8125 L 4.53125 -2.8125 L 5.179688 -1.246094 C 5.519531 -0.449219 5.605469 -0.234375 5.277344 -0.136719 L 5.277344 0 L 6.929688 0 L 6.929688 -0.136719 C 6.703125 -0.234375 6.449219 -0.449219 6.117188 -1.246094 L 3.496094 -7.546875 L 2.695312 -7.183594 L 2.792969 -6.960938 C 2.878906 -6.789062 2.886719 -6.652344 2.8125 -6.460938 L 0.714844 -1.257812 C 0.382812 -0.449219 0.117188 -0.234375 -0.179688 -0.136719 Z M 1.589844 -2.972656 L 3.003906 -6.480469 L 4.464844 -2.972656 Z M 1.589844 -2.972656 "/></g></g></g><g fill="#2b2b2b" fill-opacity="1"><g transform="translate(62.747142, 23.441862)"><g><path d="M 5.96875 0.0742188 C 6.183594 0.0742188 6.460938 0.0546875 6.617188 0 L 6.617188 -0.128906 C 6.566406 -0.117188 6.511719 -0.117188 6.449219 -0.117188 C 6.085938 -0.117188 5.871094 -0.46875 5.363281 -1.746094 C 4.851562 -3.058594 4.648438 -3.710938 3.335938 -3.878906 C 4.722656 -4.039062 5.445312 -4.796875 5.445312 -5.796875 C 5.445312 -6.746094 4.808594 -7.460938 2.644531 -7.460938 L 0.542969 -7.460938 L 0.542969 -7.324219 C 0.875 -7.226562 0.96875 -6.980469 0.96875 -6.109375 L 0.96875 -1.355469 C 0.96875 -0.480469 0.875 -0.234375 0.542969 -0.136719 L 0.542969 0 L 2.269531 0 L 2.269531 -0.136719 C 1.941406 -0.234375 1.84375 -0.480469 1.84375 -1.355469 L 1.84375 -3.847656 L 2.527344 -3.847656 C 3.804688 -3.847656 3.890625 -3.101562 4.507812 -1.628906 C 4.976562 -0.523438 5.148438 0.0742188 5.96875 0.0742188 Z M 1.84375 -4.007812 L 1.84375 -7.28125 C 2.015625 -7.289062 2.183594 -7.300781 2.34375 -7.300781 C 3.921875 -7.300781 4.539062 -6.5 4.539062 -5.554688 C 4.539062 -4.648438 3.964844 -4.007812 2.738281 -4.007812 Z M 1.84375 -4.007812 "/></g></g></g><g fill="#2b2b2b" fill-opacity="1"><g transform="translate(70.942418, 23.441862)"><g><path d="M 4.574219 0.105469 C 5.765625 0.105469 6.777344 -0.191406 7.28125 -0.46875 L 7.449219 -1.855469 L 7.332031 -1.867188 C 6.917969 -0.714844 6.023438 -0.105469 4.871094 -0.105469 C 2.652344 -0.105469 1.4375 -2.023438 1.449219 -4.027344 C 1.449219 -6.203125 2.761719 -7.332031 4.457031 -7.332031 C 5.722656 -7.332031 6.734375 -6.683594 7.152344 -5.714844 L 7.257812 -5.734375 L 7.214844 -7.003906 C 6.800781 -7.269531 5.734375 -7.535156 4.816406 -7.535156 C 2.3125 -7.535156 0.554688 -5.851562 0.554688 -3.582031 C 0.554688 -1.257812 2.121094 0.105469 4.574219 0.105469 Z M 4.574219 0.105469 "/></g></g></g><g fill="#2b2b2b" fill-opacity="1"><g transform="translate(80.51238, 23.441862)"><g><path d="M 0.542969 0 L 5.796875 0 L 5.882812 -1.417969 L 5.765625 -1.4375 C 5.382812 -0.449219 4.734375 -0.160156 3.710938 -0.160156 L 2.324219 -0.160156 C 2.015625 -0.160156 1.84375 -0.332031 1.84375 -0.640625 L 1.84375 -3.910156 L 3.207031 -3.910156 C 4.421875 -3.910156 4.734375 -3.667969 4.859375 -3.1875 L 4.988281 -3.1875 L 4.988281 -4.796875 L 4.859375 -4.796875 C 4.734375 -4.316406 4.421875 -4.070312 3.207031 -4.070312 L 1.84375 -4.070312 L 1.84375 -7.300781 L 3.410156 -7.300781 C 4.496094 -7.300781 5.125 -6.980469 5.5 -6.042969 L 5.617188 -6.074219 L 5.5 -7.460938 L 0.542969 -7.460938 L 0.542969 -7.324219 C 0.863281 -7.226562 0.96875 -6.980469 0.96875 -6.109375 L 0.96875 -1.355469 C 0.96875 -0.480469 0.863281 -0.234375 0.542969 -0.136719 Z M 0.542969 0 "/></g></g></g><g fill="#2b2b2b" fill-opacity="1"><g transform="translate(88.462558, 23.441862)"><g><path d="M 0.542969 0 L 5.5 0 L 5.574219 -1.203125 L 5.457031 -1.226562 C 5.085938 -0.425781 4.613281 -0.171875 3.59375 -0.171875 L 2.324219 -0.171875 C 2.015625 -0.171875 1.84375 -0.339844 1.84375 -0.648438 L 1.84375 -6.109375 C 1.84375 -6.980469 1.941406 -7.226562 2.269531 -7.324219 L 2.269531 -7.460938 L 0.542969 -7.460938 L 0.542969 -7.324219 C 0.863281 -7.226562 0.96875 -6.980469 0.96875 -6.109375 L 0.96875 -1.355469 C 0.96875 -0.480469 0.863281 -0.234375 0.542969 -0.136719 Z M 0.542969 0 "/></g></g></g><g fill="#2b2b2b" fill-opacity="1"><g transform="translate(95.922548, 23.441862)"><g><path d="M 0.542969 0 L 5.5 0 L 5.574219 -1.203125 L 5.457031 -1.226562 C 5.085938 -0.425781 4.613281 -0.171875 3.59375 -0.171875 L 2.324219 -0.171875 C 2.015625 -0.171875 1.84375 -0.339844 1.84375 -0.648438 L 1.84375 -6.109375 C 1.84375 -6.980469 1.941406 -7.226562 2.269531 -7.324219 L 2.269531 -7.460938 L 0.542969 -7.460938 L 0.542969 -7.324219 C 0.863281 -7.226562 0.96875 -6.980469 0.96875 -6.109375 L 0.96875 -1.355469 C 0.96875 -0.480469 0.863281 -0.234375 0.542969 -0.136719 Z M 0.542969 0 "/></g></g></g><g fill="#2b2b2b" fill-opacity="1"><g transform="translate(103.382538, 23.441862)"><g><path d="M 0.542969 0 L 5.796875 0 L 5.882812 -1.417969 L 5.765625 -1.4375 C 5.382812 -0.449219 4.734375 -0.160156 3.710938 -0.160156 L 2.324219 -0.160156 C 2.015625 -0.160156 1.84375 -0.332031 1.84375 -0.640625 L 1.84375 -3.910156 L 3.207031 -3.910156 C 4.421875 -3.910156 4.734375 -3.667969 4.859375 -3.1875 L 4.988281 -3.1875 L 4.988281 -4.796875 L 4.859375 -4.796875 C 4.734375 -4.316406 4.421875 -4.070312 3.207031 -4.070312 L 1.84375 -4.070312 L 1.84375 -7.300781 L 3.410156 -7.300781 C 4.496094 -7.300781 5.125 -6.980469 5.5 -6.042969 L 5.617188 -6.074219 L 5.5 -7.460938 L 0.542969 -7.460938 L 0.542969 -7.324219 C 0.863281 -7.226562 0.96875 -6.980469 0.96875 -6.109375 L 0.96875 -1.355469 C 0.96875 -0.480469 0.863281 -0.234375 0.542969 -0.136719 Z M 0.542969 0 "/></g></g></g><g fill="#2b2b2b" fill-opacity="1"><g transform="translate(111.332715, 23.441862)"><g/></g></g><g fill="#2b2b2b" fill-opacity="1"><g transform="translate(115.244109, 23.441862)"><g><path d="M 4.574219 0.105469 C 5.765625 0.105469 6.777344 -0.191406 7.28125 -0.46875 L 7.449219 -1.855469 L 7.332031 -1.867188 C 6.917969 -0.714844 6.023438 -0.105469 4.871094 -0.105469 C 2.652344 -0.105469 1.4375 -2.023438 1.449219 -4.027344 C 1.449219 -6.203125 2.761719 -7.332031 4.457031 -7.332031 C 5.722656 -7.332031 6.734375 -6.683594 7.152344 -5.714844 L 7.257812 -5.734375 L 7.214844 -7.003906 C 6.800781 -7.269531 5.734375 -7.535156 4.816406 -7.535156 C 2.3125 -7.535156 0.554688 -5.851562 0.554688 -3.582031 C 0.554688 -1.257812 2.121094 0.105469 4.574219 0.105469 Z M 4.574219 0.105469 "/></g></g></g><g fill="#2b2b2b" fill-opacity="1"><g transform="translate(124.814072, 23.441862)"><g><path d="M 4.347656 0.105469 C 6.140625 0.105469 8.121094 -1.066406 8.121094 -3.699219 C 8.121094 -6.308594 6.148438 -7.546875 4.347656 -7.546875 C 2.089844 -7.546875 0.554688 -5.925781 0.554688 -3.742188 C 0.554688 -1.097656 2.535156 0.105469 4.347656 0.105469 Z M 1.40625 -4.359375 C 1.34375 -6.097656 2.292969 -7.300781 3.910156 -7.300781 C 5.820312 -7.300781 7.214844 -5.222656 7.289062 -2.996094 C 7.34375 -1.394531 6.5 -0.160156 4.796875 -0.160156 C 2.886719 -0.160156 1.480469 -2.21875 1.40625 -4.359375 Z M 1.40625 -4.359375 "/></g></g></g><g fill="#2b2b2b" fill-opacity="1"><g transform="translate(135.151289, 23.441862)"><g><path d="M 0.542969 0 L 3.335938 0 C 5.679688 0 7.195312 -1.621094 7.183594 -3.867188 C 7.171875 -5.597656 6.023438 -7.460938 3.089844 -7.460938 L 0.542969 -7.460938 L 0.542969 -7.324219 C 0.863281 -7.226562 0.96875 -6.980469 0.96875 -6.109375 L 0.96875 -1.355469 C 0.96875 -0.480469 0.863281 -0.234375 0.542969 -0.136719 Z M 1.84375 -0.9375 L 1.84375 -7.300781 L 2.570312 -7.300781 C 4.945312 -7.300781 6.214844 -5.574219 6.214844 -3.441406 C 6.214844 -1.214844 5.179688 -0.160156 3.316406 -0.160156 L 2.535156 -0.160156 C 1.949219 -0.160156 1.84375 -0.4375 1.84375 -0.9375 Z M 1.84375 -0.9375 "/></g></g></g><g fill="#2b2b2b" fill-opacity="1"><g transform="translate(144.550743, 23.441862)"><g><path d="M 0.542969 0 L 5.796875 0 L 5.882812 -1.417969 L 5.765625 -1.4375 C 5.382812 -0.449219 4.734375 -0.160156 3.710938 -0.160156 L 2.324219 -0.160156 C 2.015625 -0.160156 1.84375 -0.332031 1.84375 -0.640625 L 1.84375 -3.910156 L 3.207031 -3.910156 C 4.421875 -3.910156 4.734375 -3.667969 4.859375 -3.1875 L 4.988281 -3.1875 L 4.988281 -4.796875 L 4.859375 -4.796875 C 4.734375 -4.316406 4.421875 -4.070312 3.207031 -4.070312 L 1.84375 -4.070312 L 1.84375 -7.300781 L 3.410156 -7.300781 C 4.496094 -7.300781 5.125 -6.980469 5.5 -6.042969 L 5.617188 -6.074219 L 5.5 -7.460938 L 0.542969 -7.460938 L 0.542969 -7.324219 C 0.863281 -7.226562 0.96875 -6.980469 0.96875 -6.109375 L 0.96875 -1.355469 C 0.96875 -0.480469 0.863281 -0.234375 0.542969 -0.136719 Z M 0.542969 0 "/></g></g></g></svg>