<svg width="842" height="596" viewBox="0 0 842 596" fill="none" xmlns="http://www.w3.org/2000/svg">
<g clip-path="url(#clip0_9_17)">
<path d="M715.66 2.94H126.94V591.66H715.66V2.94Z" fill="white"/>
<path d="M715.66 2.94H126.94V591.66H715.66V2.94Z" fill="#E7DFD8"/>
<mask id="mask0_9_17" style="mask-type:luminance" maskUnits="userSpaceOnUse" x="201" y="77" width="440" height="440">
<path d="M201.859 77.8587H640.455V516.455H201.859V77.8587Z" fill="white"/>
</mask>
<g mask="url(#mask0_9_17)">
<path d="M421.295 516.731C300.336 516.731 201.859 418.253 201.859 297.295C201.859 176.336 300.336 77.8587 421.295 77.8587C542.253 77.8587 640.731 176.336 640.731 297.295C640.731 418.253 542.253 516.731 421.295 516.731ZM421.295 81.1038C302.064 81.1038 205.104 178.064 205.104 297.295C205.104 416.526 302.064 513.486 421.295 513.486C540.526 513.486 637.486 416.526 637.486 297.295C637.486 178.064 540.526 81.1038 421.295 81.1038Z" fill="black"/>
</g>
<mask id="mask1_9_17" style="mask-type:luminance" maskUnits="userSpaceOnUse" x="193" y="69" width="457" height="457">
<path d="M193.237 69.2374H649.495V525.495H193.237V69.2374Z" fill="white"/>
</mask>
<g mask="url(#mask1_9_17)">
<path d="M421.3 525.357C295.584 525.357 193.237 423.011 193.237 297.3C193.237 171.584 295.584 69.2374 421.3 69.2374C547.011 69.2374 649.357 171.584 649.357 297.3C649.357 423.011 547.011 525.357 421.3 525.357ZM421.3 72.6103C297.383 72.6103 196.61 173.383 196.61 297.3C196.61 421.217 297.383 521.99 421.3 521.99C545.217 521.99 645.99 421.217 645.99 297.3C645.99 173.383 545.217 72.6103 421.3 72.6103Z" fill="black"/>
</g>
<mask id="mask2_9_17" style="mask-type:luminance" maskUnits="userSpaceOnUse" x="363" y="154" width="105" height="202">
<path d="M363.082 154.229H467.744V355.518H363.082V154.229Z" fill="white"/>
</mask>
<g mask="url(#mask2_9_17)">
<path d="M439.314 225.182C439.314 227.987 441.563 230.262 444.333 230.262H467.738V245.46H444.333C442.953 245.46 441.696 246.032 440.786 246.947C439.876 247.872 439.314 249.139 439.314 250.545C439.314 253.345 441.563 255.625 444.333 255.625H467.738V270.823H444.333C442.953 270.823 441.696 271.395 440.786 272.31C439.876 273.23 439.314 274.497 439.314 275.903C439.314 278.708 441.563 280.982 444.333 280.982H467.738V301.838C467.738 331.008 444.333 354.664 415.479 354.664C386.616 354.664 363.215 331.008 363.215 301.838V280.982H386.554C389.334 280.982 391.578 278.708 391.578 275.903C391.578 274.497 391.021 273.23 390.111 272.31C389.201 271.395 387.944 270.823 386.554 270.823H363.215V255.625H386.554C389.334 255.625 391.578 253.345 391.578 250.545C391.578 249.139 391.021 247.872 390.111 246.947C389.201 246.032 387.944 245.46 386.554 245.46H363.215V230.262H386.554C389.334 230.262 391.578 227.987 391.578 225.182C391.578 222.376 389.334 220.102 386.554 220.102H363.215V207.612C363.215 178.432 386.616 154.781 415.479 154.781C429.906 154.781 442.968 160.699 452.428 170.255C461.887 179.817 467.738 193.022 467.738 207.612V220.102H444.333C441.563 220.102 439.314 222.376 439.314 225.182Z" fill="black"/>
</g>
<mask id="mask3_9_17" style="mask-type:luminance" maskUnits="userSpaceOnUse" x="335" y="262" width="161" height="188">
<path d="M335.516 262.631H495.432V449.698H335.516V262.631Z" fill="white"/>
</mask>
<g mask="url(#mask3_9_17)">
<path d="M488.64 263.265C484.884 263.265 481.843 266.341 481.843 270.133V301.838C481.843 310.884 480.085 319.673 476.625 327.957C473.278 335.945 468.5 343.125 462.403 349.283C456.317 355.441 449.218 360.271 441.317 363.654C433.125 367.154 424.428 368.928 415.469 368.928C406.521 368.928 397.823 367.154 389.636 363.654C381.73 360.271 374.632 355.441 368.545 349.283C362.448 343.125 357.67 335.945 354.328 327.957C350.863 319.673 349.105 310.884 349.105 301.838V270.133C349.105 266.341 346.064 263.265 342.308 263.265C338.557 263.265 335.516 266.341 335.516 270.133V301.838C335.516 312.733 337.637 323.322 341.813 333.308C345.84 342.936 351.599 351.578 358.938 358.993C366.271 366.408 374.816 372.229 384.341 376.307C392.13 379.639 400.286 381.668 408.682 382.378V435.22C408.682 435.47 408.698 435.716 408.718 435.961H365.576C361.83 435.961 358.784 439.032 358.784 442.829C358.784 446.621 361.83 449.698 365.576 449.698H465.372C469.118 449.698 472.164 446.621 472.164 442.829C472.164 439.032 469.118 435.961 465.372 435.961H422.23C422.256 435.716 422.266 435.47 422.266 435.22V382.378C430.662 381.668 438.824 379.639 446.612 376.307C456.133 372.229 464.677 366.408 472.011 358.993C479.349 351.578 485.109 342.936 489.136 333.308C493.311 323.322 495.432 312.733 495.432 301.838V270.133C495.432 266.341 492.391 263.265 488.64 263.265Z" fill="black"/>
</g>
<path d="M334.338 145.337C335.861 145.271 337.798 144.504 338.963 143.697C341.569 141.924 342.893 139.419 341.549 135.817L334.016 115.293L331.517 116.228L338.723 135.53C339.862 138.581 340.69 140.242 338.16 142.777C337.195 143.559 335.702 144.279 334.322 144.295L334.338 145.337Z" fill="black"/>
<path d="M349.914 139.509L350.977 139.223L351.238 131.665L362.598 128.573L366.615 134.961L369.303 134.23L353.532 109.322L350.844 110.053L350.854 110.088L349.914 139.509ZM351.258 130.561L351.897 111.678L361.98 127.643L351.258 130.561Z" fill="black"/>
<path d="M375.412 132.977L376.46 132.808L372.264 106.771L391.76 130.304L391.765 130.345L392.813 130.177L388.331 102.35L387.284 102.519L390.927 125.153L373.956 104.67L370.93 105.156L375.412 132.977Z" fill="black"/>
<path d="M399.078 129.505L415.804 128.494L415.743 127.436L401.674 128.284L400.912 115.631L411.532 114.992L411.465 113.934L400.851 114.573L400.105 102.272L413.351 101.475L413.285 100.417L397.381 101.378L399.078 129.505Z" fill="black"/>
<path d="M441.567 129.227L449.631 130.228C455.861 131.005 461.666 125.363 462.642 117.534C463.619 109.705 459.346 103.041 453.112 102.264L445.052 101.263L441.567 129.227ZM444.342 128.542L447.567 102.642L452.984 103.317C457.731 103.91 460.823 110.86 460.031 117.207C459.239 123.595 454.507 129.809 449.754 129.217L444.342 128.542Z" fill="black"/>
<path d="M476.754 135.533C483.28 137.101 489.745 132.037 491.6 124.33C493.455 116.619 489.995 109.168 483.474 107.599C476.907 106.02 470.478 111.094 468.628 118.806C466.773 126.513 470.192 133.953 476.754 135.533ZM477.004 134.505C471.853 133.263 469.681 125.68 471.184 119.419C472.696 113.123 478.072 107.389 483.224 108.631C488.339 109.858 490.521 117.411 489.004 123.707C487.501 129.962 482.115 135.732 477.004 134.505Z" fill="black"/>
<path d="M493.447 139.591L509.223 145.248L509.581 144.252L496.319 139.494L500.597 127.561L510.608 131.148L510.966 130.152L500.954 126.564L505.109 114.964L517.599 119.441L517.957 118.444L502.958 113.063L493.447 139.591Z" fill="black"/>
<path d="M265.593 439.888L273.438 447.124C276.565 449.991 281.119 449.955 284.037 446.771C286.474 444.109 286.49 440.665 284.701 437.798C287.353 438.738 290.215 438.227 292.31 435.937C295.07 432.927 294.963 428.573 292.04 425.895L284.629 419.109L265.593 439.888ZM277.531 430.807L285.881 421.69L290.542 425.962C292.74 427.975 292.387 431.961 290.374 434.164C288.36 436.362 284.389 437.092 282.192 435.074L277.531 430.807ZM268.251 440.935L276.816 431.588L282.258 436.571C284.512 438.641 284.164 442.739 282.095 444.998C280.03 447.257 275.952 447.988 273.693 445.923L268.251 440.935Z" fill="black"/>
<path d="M286.751 458.359L300.406 468.007L301.019 467.144L289.541 459.034L305.195 436.885L303.012 435.347L286.751 458.359Z" fill="black"/>
<path d="M318.447 478.838C324.401 481.935 331.898 478.573 335.552 471.541C339.206 464.504 337.647 456.439 331.693 453.342C325.699 450.23 318.243 453.608 314.584 460.645C310.93 467.682 312.453 475.726 318.447 478.838ZM318.933 477.898C314.231 475.455 313.95 467.57 316.919 461.856C319.904 456.112 326.501 451.84 331.203 454.283C335.869 456.71 336.17 464.56 333.181 470.309C330.217 476.017 323.599 480.325 318.933 477.898Z" fill="black"/>
<path d="M348.424 491.691C352.109 492.927 356.55 492.099 359.044 488.977L361.936 480.632L356.039 478.587L355.691 479.589L359.069 480.759L356.228 488.956C356.228 488.956 353.749 491.67 350.049 490.965C343.697 489.514 341.908 481.378 344.116 474.995C346.237 468.878 352.518 463.829 357.485 465.551C360.01 466.425 361.931 468.545 362.989 471.361L363.985 470.998C362.795 467.845 360.541 465.484 357.832 464.549C351.49 462.352 344.193 466.634 341.597 474.121C339.001 481.613 342.082 489.493 348.424 491.691Z" fill="black"/>
<path d="M402.852 502.318L405.862 502.619L403.879 497.923L406.465 495.695L406.01 494.744C405.402 495.276 404.032 496.364 403.429 496.896C401.334 492.588 399.949 489.015 398.569 485.842C400.465 484.61 402.085 483.394 403.118 481.718C403.869 480.491 404.354 479.157 404.226 477.686C403.991 475.258 402.213 473.705 399.801 473.383C397.389 473.066 394.839 474.512 394.062 476.801C393.178 479.357 394.271 483.052 395.707 486.036C394.721 486.45 393.975 486.849 393.127 487.436C389.657 489.813 387.812 494.085 389.084 497.606C389.922 499.895 392.616 502.134 395.851 501.745C397.649 501.531 399.448 500.841 401.676 499.482L402.852 502.318ZM402.106 478.779C401.809 481.784 400.378 483.496 398.15 484.896C397.016 482.024 395.575 477.854 396.77 475.728C397.537 474.343 400.491 474.006 401.38 475.355C401.927 476.198 402.213 477.686 402.106 478.779ZM401.262 498.495C398.058 500.585 393.295 500.861 391.68 497.269C391.195 496.196 390.837 495.015 390.858 493.64C390.858 492.02 391.742 490.257 393.009 489C393.883 488.142 394.813 487.523 396.055 486.935C397.598 490.482 399.883 495.281 401.262 498.495Z" fill="black"/>
<path d="M437.23 502.101L439.878 501.769L438.181 488.216L445.658 487.28C449.046 486.856 452.393 483.233 451.877 479.104C451.345 474.857 447.671 472.394 443.465 472.92L433.73 474.136L437.23 502.101ZM438.053 487.163L436.51 474.857L443.133 474.029C446.051 473.661 448.857 476.477 449.23 479.436C449.598 482.395 447.594 485.967 444.671 486.335L438.053 487.163Z" fill="black"/>
<path d="M473.528 496.042C480.013 494.33 483.304 486.802 481.28 479.137C479.256 471.476 472.679 466.555 466.189 468.267C459.663 469.989 456.413 477.506 458.436 485.172C460.46 492.838 466.996 497.769 473.528 496.042ZM473.257 495.02C468.131 496.374 462.622 490.722 460.976 484.503C459.326 478.242 461.339 470.643 466.46 469.294C471.545 467.95 477.043 473.561 478.699 479.821C480.345 486.046 478.342 493.676 473.257 495.02Z" fill="black"/>
<path d="M493.589 489.446L501.07 486.287C506.86 483.845 509.068 476.056 506.002 468.789C502.936 461.517 495.909 457.879 490.124 460.321L482.637 463.48L493.589 489.446ZM495.648 487.468L485.509 463.418L490.533 461.297C494.948 459.437 501.096 463.914 503.58 469.811C506.084 475.74 505.087 483.487 500.677 485.347L495.648 487.468Z" fill="black"/>
<path d="M529.463 472.472C532.887 470.402 534.707 466.314 534.277 461.505L533.209 461.633C533.587 465.655 532.131 469.661 528.922 471.562C524.363 474.261 517.541 470.367 514.239 464.796C510.958 459.257 510.8 451.366 515.358 448.668C517.622 447.329 520.484 447.232 523.321 448.244L523.688 447.247C520.546 446.097 517.326 446.363 514.822 447.758C509.011 451.197 507.938 459.313 511.975 466.135C516.018 472.958 523.653 475.917 529.463 472.472Z" fill="black"/>
<path d="M545.222 461.832L546.081 461.142L543.321 454.105L552.52 446.756L558.744 451.028L560.921 449.286L536.555 432.682L534.378 434.425L534.403 434.455L545.222 461.832ZM542.907 453.083L535.993 435.498L551.585 446.148L542.907 453.083Z" fill="black"/>
<path d="M573.457 437.649C574.112 436.918 574.469 436.494 574.847 435.824C576.626 432.63 576.565 428.966 574.582 426.446C571.377 422.363 566.742 424.157 563.323 425.491C563.129 425.578 562.884 425.665 562.664 425.721C558.995 427.142 556.2 427.714 554.396 425.859C550.128 421.459 554.503 413.783 560.032 415.914L560.405 414.907C558.085 414.028 554.738 414.779 552.413 418.367C550.517 421.285 550.082 425.235 552.51 427.693C555.924 431.163 561.111 429.191 563.62 428.235C563.84 428.118 564.059 428.061 564.31 427.975C568.061 426.467 571.812 426.712 573.544 429.099C577.203 434.173 571.95 440.393 564.938 439.289L564.759 440.316C568.684 440.945 571.628 439.539 573.457 437.649Z" fill="black"/>
<path d="M589.502 418.459L591.117 416.333L569.515 399.933L573.833 394.245L572.99 393.601L562.739 407.108L563.582 407.747L567.9 402.059L589.502 418.459Z" fill="black"/>
</g>
<defs>
<clipPath id="clip0_9_17">
<rect x="176" y="52" width="490.6" height="490.6" rx="245.3" fill="white"/>
</clipPath>
</defs>
</svg>
